<?xml version="1.0" encoding="iso-8859-1"?>
<!-- Generator: Adobe Illustrator 19.1.0, SVG Export Plug-In . SVG Version: 6.00 Build 0)  -->
<svg version="1.1" id="Capa_1" xmlns="http://www.w3.org/2000/svg" xmlns:xlink="http://www.w3.org/1999/xlink" x="0px" y="0px"
	 viewBox="0 0 430.362 430.362" style="enable-background:new 0 0 430.362 430.362;" xml:space="preserve">
<g>
	<g>
		<path style="fill:#231F20;" d="M400.461,54.808h-35.962V36.438C364.481,16.358,348.159,0,328.043,0H84.708
			C64.627,0,48.27,16.358,48.27,36.438v18.369H29.901c-5.858,0-10.587,4.747-10.587,10.587c0,5.841,4.747,10.587,10.587,10.587
			H48.27v18.369c0,20.081,16.34,36.421,36.438,36.421h243.37c20.098,0,36.438-16.34,36.421-36.438V75.965h25.375V160.4H215.181
			c-5.858,0-10.587,4.729-10.587,10.587v98.922h-6.423c-15.934,0-28.886,12.952-28.886,28.868v102.716
			c0,15.934,12.97,28.868,28.886,28.868h36.933c15.934,0,28.886-12.934,28.886-28.868V298.777c0-15.934-12.97-28.868-28.886-28.868
			h-9.335v-88.335h174.693c5.858,0,10.587-4.747,10.587-10.587V65.395C411.031,59.554,406.302,54.808,400.461,54.808z
			 M343.324,94.334c0,8.399-6.847,15.264-15.264,15.264H84.708c-8.417,0-15.264-6.847-15.264-15.264V36.438
			c0-8.417,6.847-15.281,15.264-15.281H328.06c8.417,0,15.264,6.864,15.264,15.281V94.334z M242.796,298.795v102.716
			c0,4.235-3.459,7.694-7.711,7.694h-36.933c-4.235,0-7.694-3.459-7.694-7.694V298.795c0-4.253,3.441-7.711,7.694-7.711h36.933
			C239.355,291.084,242.796,294.56,242.796,298.795z"/>
		<path style="fill:#231F20;" d="M318.302,76.935H94.413c-4.87,0-8.823,3.953-8.823,8.823c0,4.87,3.953,8.823,8.823,8.823h223.871
			c4.888,0,8.841-3.953,8.841-8.823C327.125,80.888,323.173,76.935,318.302,76.935z"/>
	</g>
	<g>
	</g>
	<g>
	</g>
	<g>
	</g>
	<g>
	</g>
	<g>
	</g>
	<g>
	</g>
	<g>
	</g>
	<g>
	</g>
	<g>
	</g>
	<g>
	</g>
	<g>
	</g>
	<g>
	</g>
	<g>
	</g>
	<g>
	</g>
	<g>
	</g>
</g>
<g>
</g>
<g>
</g>
<g>
</g>
<g>
</g>
<g>
</g>
<g>
</g>
<g>
</g>
<g>
</g>
<g>
</g>
<g>
</g>
<g>
</g>
<g>
</g>
<g>
</g>
<g>
</g>
<g>
</g>
</svg>
